<svg xmlns="http://www.w3.org/2000/svg" width="21.305" height="21.306" viewBox="0 0 21.305 21.306"><g transform="translate(0 19)"><g transform="translate(0 -19)"><path d="M307.489,152.551a.9.9,0,0,0-.193-.289l-2.662-2.662a.888.888,0,1,0-1.255,1.255L304.527,152h-4.959a.888.888,0,1,0,0,1.775h4.959l-1.148,1.148a.888.888,0,1,0,1.255,1.255l2.662-2.662a.879.879,0,0,0,.193-.289A.888.888,0,0,0,307.489,152.551Z" transform="translate(-286.252 -143.124)"/><path d="M15.106,12.429a.887.887,0,0,0-.888.888v4.439H10.667V3.551a.889.889,0,0,0-.633-.85L6.951,1.776h7.267V6.214a.888.888,0,1,0,1.775,0V.888A.887.887,0,0,0,15.106,0H.9A.791.791,0,0,0,.81.017.877.877,0,0,0,.434.148C.414.161.39.162.372.176S.362.191.355.2A.88.88,0,0,0,.119.477.725.725,0,0,0,.094.551a.842.842,0,0,0-.07.208.553.553,0,0,0,0,.077C.026.854.014.87.014.888V18.643a.887.887,0,0,0,.714.87l8.877,1.776a.826.826,0,0,0,.174.018.888.888,0,0,0,.888-.888v-.888h4.439a.887.887,0,0,0,.888-.888V13.316A.887.887,0,0,0,15.106,12.429Z" transform="translate(-0.014 0)"/></g></g></svg>