<svg id="Page-1" xmlns="http://www.w3.org/2000/svg" width="18.477" height="17.5" viewBox="0 0 18.477 17.5">
  <g id="_017---Headset" data-name="017---Headset" transform="translate(0 0)">
    <path id="Shape" d="M1.232,28.311V24H.924A.924.924,0,0,0,0,24.924v2.464a.924.924,0,0,0,.924.924Z" transform="translate(0 -16.663)" fill="#fff"/>
    <rect id="Rectangle-path" width="2.464" height="6.159" rx="1.232" transform="translate(14.165 6.414)" fill="#fff"/>
    <path id="Shape-2" data-name="Shape" d="M56.308,24H56v4.311h.308a.924.924,0,0,0,.924-.924V24.924A.924.924,0,0,0,56.308,24Z" transform="translate(-38.755 -16.663)" fill="#fff"/>
    <path id="Shape-3" data-name="Shape" d="M9.454,5.971a5.543,5.543,0,0,1,10.932,0h1.232a6.775,6.775,0,0,0-13.408,0H9.442Z" transform="translate(-5.682 -0.173)" fill="#fff"/>
    <path id="Shape-4" data-name="Shape" d="M6.616,27.159h.308V28.7A2.772,2.772,0,0,0,9.7,31.47h1.287a.924.924,0,0,0,.868.616H14.93a.924.924,0,0,0,0-1.848H11.851a.924.924,0,0,0-.868.616H9.7A2.156,2.156,0,0,1,7.54,28.7v-1.54h.308a.616.616,0,0,0,.616-.616V21.616A.616.616,0,0,0,7.848,21H6.616A.616.616,0,0,0,6,21.616v4.927A.616.616,0,0,0,6.616,27.159Z" transform="translate(-4.152 -14.586)" fill="#fff"/>
  </g>
</svg>
