<svg xmlns="http://www.w3.org/2000/svg" width="19.833" height="17.009" viewBox="0 0 19.833 17.009">
  <g id="back" transform="translate(0 -31.842)">
    <g id="Grupo_101" data-name="Grupo 101" transform="translate(0 31.842)">
      <path id="Caminho_66" data-name="Caminho 66" d="M18.641,38.954a1.418,1.418,0,0,0-.245-.018H4.4l.305-.142a2.838,2.838,0,0,0,.8-.568L9.434,34.3a1.469,1.469,0,0,0,.206-1.88,1.419,1.419,0,0,0-2.129-.184l-7.1,7.1a1.419,1.419,0,0,0,0,2.007h0l7.1,7.1a1.419,1.419,0,0,0,2.129-.142,1.469,1.469,0,0,0-.206-1.88L5.517,42.484a2.838,2.838,0,0,0-.71-.518l-.426-.192H18.317a1.469,1.469,0,0,0,1.5-1.192A1.419,1.419,0,0,0,18.641,38.954Z" transform="translate(0 -31.842)" fill="#252654"/>
    </g>
  </g>
</svg>
