<svg xmlns="http://www.w3.org/2000/svg" width="18.396" height="21.824" viewBox="0 0 18.396 21.824"><defs><style>.a{fill:#fff;}</style></defs><g transform="translate(-39.856 -11.868)"><g transform="translate(39.856 11.868)"><path class="a" d="M46.48,15.989h-.158v-6.8A7.306,7.306,0,0,0,41.34,2.3l.007,0a2.3,2.3,0,1,0-4.593,0,7.306,7.306,0,0,0-4.975,6.9V16H31.62a1.762,1.762,0,0,0-1.249.519l-.018.021a1.766,1.766,0,0,0,1.265,2.995h5.659v.514A1.773,1.773,0,0,0,37.8,21.3l.021.018a1.774,1.774,0,0,0,3.009-1.275v-.514h5.654a1.772,1.772,0,0,0,0-3.544ZM38.71.869a1.6,1.6,0,0,1,1.9,1.219,7.219,7.219,0,0,0-1.252-.163H39.05v0h-.26a7.223,7.223,0,0,0-1.3.165A1.6,1.6,0,0,1,38.71.869ZM32.477,9.194A6.594,6.594,0,0,1,38.8,2.625h.253v0H39.3A6.594,6.594,0,0,1,45.623,9.2v6.791H32.477ZM39.813,20.8a1.075,1.075,0,0,1-1.507.016L38.29,20.8a1.075,1.075,0,0,1-.317-.76v-.514h2.154l0,.514A1.075,1.075,0,0,1,39.813,20.8Zm7.425-2.287a1.066,1.066,0,0,1-.756.312H31.62a1.069,1.069,0,0,1-.772-1.807L30.865,17a1.066,1.066,0,0,1,.753-.315H46.48a1.07,1.07,0,0,1,.758,1.824Z" transform="translate(-29.852 0)"/></g></g></svg>