<svg xmlns="http://www.w3.org/2000/svg" width="9.754" height="12.806" viewBox="0 0 9.754 12.806">
  <g id="security" transform="translate(-61 -1)">
    <path id="Caminho_87" data-name="Caminho 87" d="M64.752,5.627V3.752a1.125,1.125,0,1,1,2.251,0V5.627l1.252.115,1.374-.115V3.752a3.752,3.752,0,0,0-7.5,0V5.627H61v7.178h9.754V5.627ZM62.876,3.752a3,3,0,1,1,6,0V5.627H67.753V3.752a1.876,1.876,0,0,0-3.752,0V5.627H62.876ZM70,12.055c-.1-.056-2.482-.013-4.127-.046-.632-.013-4.06-.048-4.145,0l.018-5.631H70Z" transform="translate(0 1)" fill="#858585"/>
  </g>
</svg>
