<svg xmlns="http://www.w3.org/2000/svg" width="55.275" height="45.322" viewBox="0 0 55.275 45.322">
  <g id="love-is-in-the-air" transform="translate(5 -42.307)">
    <g id="Grupo_100" data-name="Grupo 100" transform="translate(-5 42.307)">
      <path id="Caminho_65" data-name="Caminho 65" d="M18.193,196.695l.259-.014c16.167-6.526,22.2-21.722,15.076-28.247s-15.276,2.061-15.276,2.061h-.059s-8.158-8.588-15.276-2.062S2.026,190.169,18.193,196.695Z" transform="translate(0 -151.373)" fill="#6dc9fa"/>
      <path id="Caminho_62" data-name="Caminho 62" d="M18.193,196.695l.259-.014c16.167-6.526,22.2-21.722,15.076-28.247s-15.276,2.061-15.276,2.061h-.059s-8.158-8.588-15.276-2.062S2.026,190.169,18.193,196.695Z" transform="translate(4.17 -153.875)" fill="rgba(109,113,249,0.8)"/>
      <path id="Caminho_63" data-name="Caminho 63" d="M272.334,108.05a1.4,1.4,0,1,0,0,2.809c6.9,0,12.523,5.3,12.523,11.821a1.4,1.4,0,1,0,2.809,0C287.666,114.612,280.788,108.05,272.334,108.05Z" transform="translate(-240.233 -101.613)" fill="#6dc9fa"/>
      <path id="Caminho_64" data-name="Caminho 64" d="M291.622,62.437a1.4,1.4,0,1,0,2.809,0c0-11.1-10.448-20.13-23.29-20.13a1.4,1.4,0,1,0,0,2.809C282.434,45.116,291.622,52.886,291.622,62.437Z" transform="translate(-239.156 -42.307)" fill="#6d71f9"/>
    </g>
  </g>
</svg>
