<?xml version="1.0" standalone="no"?>
<!DOCTYPE svg PUBLIC "-//W3C//DTD SVG 20010904//EN"
 "http://www.w3.org/TR/2001/REC-SVG-20010904/DTD/svg10.dtd">
<svg version="1.0" xmlns="http://www.w3.org/2000/svg"
 width="38.000000pt" height="38.000000pt" viewBox="0 0 38.000000 38.000000"
 preserveAspectRatio="xMidYMid meet">

<g transform="translate(0.000000,38.000000) scale(0.100000,-0.100000)"
fill="#000000" stroke="none">
<path d="M180 355 c0 -16 6 -25 15 -25 9 0 15 9 15 25 0 16 -6 25 -15 25 -9 0
-15 -9 -15 -25z"/>
<path d="M139 353 c-1 -5 -1 -11 0 -15 3 -21 -41 -48 -78 -48 -56 0 -62 -13
-59 -126 3 -91 5 -99 25 -110 13 -6 31 -18 41 -27 25 -23 59 -21 74 3 18 28
88 28 113 0 26 -29 55 -24 93 14 28 29 33 40 29 73 l-4 38 -1 -38 c-3 -70 -84
-125 -114 -77 -18 29 -103 29 -118 0 -14 -25 -55 -26 -72 -1 -7 10 -22 20 -33
22 -18 4 -20 12 -20 109 l0 105 133 3 132 3 33 -47 c69 -99 74 -94 6 7 -21 31
-35 60 -31 63 3 4 -4 9 -16 13 -12 3 -19 9 -16 14 3 5 -3 6 -13 3 -16 -5 -16
-4 1 10 11 9 15 16 10 16 -14 0 -34 -21 -34 -36 0 -6 6 -12 13 -11 40 1 51 -3
39 -15 -10 -10 -15 -10 -22 2 -7 12 -12 12 -22 2 -6 -6 -23 -12 -36 -12 -19 0
-23 4 -19 19 2 10 0 26 -5 35 -9 16 -27 22 -29 9z m21 -13 c0 -5 -2 -10 -4
-10 -3 0 -8 5 -11 10 -3 6 -1 10 4 10 6 0 11 -4 11 -10z m-20 -40 c0 -5 -4
-10 -10 -10 -5 0 -10 5 -10 10 0 6 5 10 10 10 6 0 10 -4 10 -10z"/>
<path d="M240 200 l0 -40 50 0 c28 0 50 2 50 5 0 3 -10 21 -22 40 -17 26 -30
35 -50 35 -26 0 -28 -3 -28 -40z m64 8 c23 -32 20 -38 -19 -38 -32 0 -35 2
-35 30 0 37 31 42 54 8z"/>
<path d="M110 207 c0 -8 -8 -18 -17 -20 -17 -4 -17 -5 0 -6 9 0 17 -8 17 -16
0 -8 5 -15 10 -15 6 0 10 6 10 14 0 8 4 16 9 18 4 2 0 12 -10 22 -16 17 -19
17 -19 3z"/>
<path d="M86 81 c-3 -5 3 -7 14 -4 16 4 20 0 20 -17 0 -18 -4 -21 -21 -17 -16
4 -19 3 -11 -5 17 -17 44 -1 40 24 -3 24 -32 36 -42 19z"/>
<path d="M270 75 c-11 -13 -11 -19 3 -32 21 -21 49 -9 45 19 -4 28 -30 35 -48
13z m40 -9 c0 -20 -19 -31 -32 -18 -6 6 -7 15 -4 21 10 16 36 13 36 -3z"/>
</g>
</svg>
