<?xml version="1.0" standalone="no"?>
<!DOCTYPE svg PUBLIC "-//W3C//DTD SVG 20010904//EN"
 "http://www.w3.org/TR/2001/REC-SVG-20010904/DTD/svg10.dtd">
<svg version="1.0" xmlns="http://www.w3.org/2000/svg"
 width="40.000000pt" height="40.000000pt" viewBox="0 0 40.000000 40.000000"
 preserveAspectRatio="xMidYMid meet">

<g transform="translate(0.000000,40.000000) scale(0.100000,-0.100000)"
fill="#000000" stroke="none">
<path d="M296 360 l-43 -40 -111 0 c-87 0 -114 -3 -126 -16 -9 -8 -14 -19 -12
-23 3 -4 39 -16 80 -26 42 -11 76 -22 76 -26 0 -17 -47 -39 -82 -39 -53 0 -49
-24 6 -45 37 -14 47 -24 61 -61 20 -53 45 -59 45 -11 0 35 19 78 36 84 5 2 18
-29 28 -69 22 -87 32 -100 52 -74 10 14 14 50 14 129 l0 110 40 43 c41 45 49
71 28 92 -21 21 -47 13 -92 -28z m84 -3 c0 -13 -15 -37 -35 -57 l-34 -33 -3
-115 c-2 -70 -7 -117 -14 -119 -5 -2 -18 29 -28 69 -11 40 -22 76 -25 81 -14
15 -60 -48 -63 -88 l-4 -40 -18 42 c-13 32 -27 46 -59 60 l-42 18 41 3 c30 2
49 11 69 32 l27 28 -69 21 c-39 12 -76 21 -82 21 -7 0 -11 6 -9 13 3 8 39 13
120 15 l115 3 33 34 c40 42 80 47 80 12z"/>
</g>
</svg>
