<svg xmlns="http://www.w3.org/2000/svg" width="19.707" height="32.486" viewBox="0 0 19.707 32.486"><defs><style>.a{fill:#ef5261;}.b{fill:#da364c;}.c{fill:#eeefee;opacity:0.4;}</style></defs><g transform="translate(0 0)"><path class="a" d="M58.229,44.633a9.854,9.854,0,1,1-19.707,0C38.521,36.319,48.375,22,48.375,22S58.229,36.088,58.229,44.633Z" transform="translate(-38.521 -22)"/><path class="b" d="M58.346,64.237a9.853,9.853,0,0,1-19.633,1.2,9.853,9.853,0,0,0,17.862-5.741,19.462,19.462,0,0,0-1.053-5.728c1.592,3.538,2.824,7.249,2.824,10.27Z" transform="translate(-38.639 -41.604)"/><path class="c" d="M51.536,34.442s-5.546,9.863-5.846,15.31a1.864,1.864,0,0,0,1.368,2,1.4,1.4,0,0,0,1.726-1.138Z" transform="translate(-42.914 -29.63)"/></g></svg>