<svg xmlns="http://www.w3.org/2000/svg" width="29.268" height="29.267" viewBox="0 0 29.268 29.267"><defs><style>.a{fill:#fff;}</style></defs><path class="a" d="M26.919,19.211A16.617,16.617,0,0,1,21.7,18.38a2.385,2.385,0,0,0-2.32.489L16.09,21.353a18.186,18.186,0,0,1-8.177-8.175l2.411-3.205a2.366,2.366,0,0,0,.582-2.4,16.642,16.642,0,0,1-.834-5.227A2.351,2.351,0,0,0,7.723,0H2.348A2.351,2.351,0,0,0,0,2.348,26.949,26.949,0,0,0,26.919,29.267a2.351,2.351,0,0,0,2.348-2.348v-5.36A2.351,2.351,0,0,0,26.919,19.211Z"/></svg>