<svg id="Layer_1" enable-background="new 0 0 512 512" height="512" viewBox="0 0 512 512" width="512" xmlns="http://www.w3.org/2000/svg"><g><g><g><path d="m321.551 199.658c0 36.203-29.348 65.551-65.551 65.551s-65.551-29.348-65.551-65.551h-109.449v112.091c26.044 0 34.444-21.811 58.333-21.811s32.289 21.811 58.333 21.811 34.445-21.811 58.333-21.811c23.889 0 32.289 21.811 58.333 21.811s34.445-21.811 58.333-21.811c23.889 0 32.289 21.811 58.333 21.811v-112.091z" fill="#ffcca6"/><path d="m314.333 334.861c-26.044 0-34.445-21.811-58.333-21.811-23.889 0-32.289 21.811-58.333 21.811s-34.445-21.811-58.333-21.811c-23.889 0-32.289 21.811-58.333 21.811v96.139h350v-96.139c-26.044 0-34.444-21.811-58.333-21.811-23.89.001-32.291 21.811-58.335 21.811z" fill="#f9434c"/><path d="m272.317 164.795c-.834-19.126 1.358-47.991 13.352-83.795-26.604 22.817-41.147 68.468-43.413 83.453-13.308 5.694-22.634 18.903-22.634 34.294 0 20.593 16.694 37.287 37.287 37.287s37.287-16.694 37.287-37.287c-.001-15.096-8.977-28.087-21.879-33.952z" fill="#527184"/><path d="m233.675 210.751c0-15.391 9.326-28.6 22.634-34.294 1.407-9.3 7.547-30.412 18.359-50.547 2.025-13.31 5.456-28.357 11-44.91-26.603 22.817-41.147 68.468-43.413 83.453-13.308 5.694-22.634 18.903-22.634 34.294 0 14.7 8.51 27.408 20.869 33.481-4.287-6.073-6.815-13.477-6.815-21.477z" fill="#6d92a5"/><g fill="#c33"><ellipse cx="137.842" cy="364.399" rx="14.38" ry="14.38" transform="matrix(.16 -.987 .987 .16 -243.876 442.367)"/><circle cx="195.709" cy="393.252" r="14.38"/><ellipse cx="373.652" cy="364.399" rx="14.38" ry="14.38" transform="matrix(.987 -.16 .16 .987 -53.328 64.249)"/><circle cx="315.785" cy="393.252" r="14.38"/><circle cx="256" cy="363.983" r="14.38"/></g><path d="m104.802 199.658h-23.802v112.091c9.866 0 17.199-3.132 23.802-7.02z" fill="#ffe5cc"/><path d="m407.198 199.658v105.071c6.603 3.889 13.936 7.02 23.802 7.02v-112.091z" fill="#f4a887"/><g><path d="m81 334.861v96.139h23.802v-103.159c-6.603 3.889-13.936 7.02-23.802 7.02z" fill="#f9646b"/></g><g><path d="m407.198 327.841v103.159h23.802v-96.139c-9.866 0-17.199-3.131-23.802-7.02z" fill="#e83a3a"/></g></g></g><g fill="#402943"><path d="m431 195.658h-27.93v-22.042c0-2.209-1.791-4-4-4s-4 1.791-4 4v22.042h-33.798v-22.042c0-2.209-1.791-4-4-4s-4 1.791-4 4v22.042h-31.721c-2.209 0-4 1.791-4 4 0 33.939-27.612 61.551-61.551 61.551s-61.551-27.612-61.551-61.551c0-2.209-1.791-4-4-4h-29.106v-22.042c0-2.209-1.791-4-4-4s-4 1.791-4 4v22.042h-33.797v-22.042c0-2.209-1.791-4-4-4s-4 1.791-4 4v22.042h-30.546c-2.209 0-4 1.791-4 4v112.091c0 2.209 1.791 4 4 4 14.495 0 24.169-6.328 32.704-11.911 7.783-5.091 15.135-9.9 25.629-9.9s17.846 4.809 25.628 9.899c8.536 5.583 18.21 11.911 32.705 11.911 14.496 0 24.169-6.328 32.705-11.911 7.783-5.091 15.134-9.899 25.628-9.899s17.846 4.809 25.628 9.899c8.536 5.583 18.21 11.911 32.705 11.911s24.169-6.328 32.705-11.911c7.783-5.091 15.134-9.899 25.628-9.899s17.846 4.809 25.629 9.9c8.535 5.582 18.209 11.911 32.704 11.911 2.209 0 4-1.791 4-4v-112.091c.002-2.209-1.789-4-3.998-4zm-4 111.896c-9.92-.988-16.941-5.581-24.325-10.411-8.421-5.508-17.129-11.205-30.008-11.205-12.878 0-21.586 5.696-30.008 11.205-8.338 5.454-16.214 10.606-28.325 10.606s-19.987-5.152-28.326-10.606c-8.421-5.508-17.129-11.205-30.008-11.205-12.878 0-21.586 5.696-30.008 11.205-8.338 5.454-16.214 10.606-28.326 10.606-12.111 0-19.987-5.152-28.325-10.606-8.421-5.508-17.129-11.205-30.008-11.205s-21.587 5.696-30.008 11.205c-7.384 4.83-14.405 9.422-24.325 10.411v-103.896h26.545v7.596c0 2.209 1.791 4 4 4s4-1.791 4-4v-7.596h33.797v7.596c0 2.209 1.791 4 4 4s4-1.791 4-4v-7.596h25.22c2.081 36.495 32.43 65.551 69.438 65.551s67.356-29.056 69.437-65.551h27.835v7.596c0 2.209 1.791 4 4 4s4-1.791 4-4v-7.596h33.798v7.596c0 2.209 1.791 4 4 4s4-1.791 4-4v-7.596h23.93z"/><path d="m256.909 240.034c22.766 0 41.287-18.521 41.287-41.287 0-15.307-8.543-29.364-21.967-36.484-.507-17.551 1.53-45.051 13.234-79.993.571-1.706-.066-3.584-1.559-4.588-1.492-1.006-3.472-.89-4.838.282-26.607 22.82-41.214 67.109-44.392 83.735-14.074 6.926-23.051 21.235-23.051 37.048-.001 22.766 18.52 41.287 41.286 41.287zm-13.08-71.903c1.273-.545 2.175-1.71 2.382-3.079 1.761-11.64 11.9-45.393 30.742-69.112-8.16 29.98-9.303 53.636-8.631 69.03.065 1.504.97 2.844 2.341 3.467 11.866 5.395 19.533 17.292 19.533 30.311 0 18.354-14.932 33.287-33.287 33.287s-33.287-14.933-33.287-33.287c0-13.348 7.931-25.365 20.207-30.617z"/><path d="m431 330.861c-12.111 0-19.987-5.152-28.325-10.606-8.421-5.508-17.129-11.205-30.008-11.205-12.878 0-21.586 5.696-30.008 11.205-8.338 5.454-16.214 10.606-28.325 10.606s-19.987-5.152-28.326-10.606c-8.421-5.508-17.129-11.205-30.008-11.205-12.878 0-21.586 5.696-30.008 11.205-8.338 5.454-16.214 10.606-28.326 10.606-12.111 0-19.987-5.152-28.325-10.606-8.421-5.508-17.129-11.205-30.008-11.205s-21.587 5.696-30.008 11.205c-8.338 5.454-16.214 10.606-28.325 10.606-2.209 0-4 1.791-4 4v96.139c0 2.209 1.791 4 4 4h350c2.209 0 4-1.791 4-4v-96.139c0-2.209-1.791-4-4-4zm-4 96.139h-342v-88.304c12.321-1.029 20.979-6.693 28.704-11.746 7.783-5.091 15.135-9.9 25.629-9.9s17.846 4.809 25.628 9.899c8.536 5.583 18.21 11.911 32.705 11.911 14.496 0 24.169-6.328 32.705-11.911 7.783-5.091 15.134-9.899 25.628-9.899s17.846 4.809 25.628 9.899c8.536 5.583 18.21 11.911 32.705 11.911s24.169-6.328 32.705-11.911c7.783-5.091 15.134-9.899 25.628-9.899s17.846 4.809 25.629 9.9c7.725 5.053 16.383 10.716 28.704 11.746v88.304z"/><path d="m137.842 346.02c-10.134 0-18.379 8.245-18.379 18.379 0 10.135 8.245 18.38 18.379 18.38 10.135 0 18.38-8.245 18.38-18.38 0-10.134-8.245-18.379-18.38-18.379zm0 28.759c-5.723 0-10.379-4.656-10.379-10.38 0-5.723 4.656-10.379 10.379-10.379 5.724 0 10.38 4.656 10.38 10.379 0 5.724-4.657 10.38-10.38 10.38z"/><path d="m195.709 374.873c-10.135 0-18.38 8.245-18.38 18.38 0 10.134 8.245 18.379 18.38 18.379 10.134 0 18.379-8.245 18.379-18.379 0-10.135-8.245-18.38-18.379-18.38zm0 28.759c-5.724 0-10.38-4.656-10.38-10.379 0-5.724 4.656-10.38 10.38-10.38 5.723 0 10.379 4.656 10.379 10.38 0 5.723-4.656 10.379-10.379 10.379z"/><path d="m373.652 346.02c-10.134 0-18.379 8.245-18.379 18.379 0 10.135 8.245 18.38 18.379 18.38 10.135 0 18.38-8.245 18.38-18.38 0-10.134-8.245-18.379-18.38-18.379zm0 28.759c-5.723 0-10.379-4.656-10.379-10.38 0-5.723 4.656-10.379 10.379-10.379 5.724 0 10.38 4.656 10.38 10.379 0 5.724-4.657 10.38-10.38 10.38z"/><path d="m315.785 374.873c-10.135 0-18.38 8.245-18.38 18.38 0 10.134 8.245 18.379 18.38 18.379 10.134 0 18.379-8.245 18.379-18.379.001-10.135-8.245-18.38-18.379-18.38zm0 28.759c-5.724 0-10.38-4.656-10.38-10.379 0-5.724 4.656-10.38 10.38-10.38 5.723 0 10.379 4.656 10.379 10.38.001 5.723-4.656 10.379-10.379 10.379z"/><path d="m256 345.603c-10.134 0-18.379 8.245-18.379 18.379s8.245 18.379 18.379 18.379 18.379-8.245 18.379-18.379c0-10.133-8.245-18.379-18.379-18.379zm0 28.759c-5.723 0-10.379-4.656-10.379-10.379s4.656-10.379 10.379-10.379 10.379 4.656 10.379 10.379-4.656 10.379-10.379 10.379z"/></g></g></svg>