<svg id="Capa_1" enable-background="new 0 0 510.59 510.59" height="512" viewBox="0 0 510.59 510.59" width="512" xmlns="http://www.w3.org/2000/svg"><g><path d="m390.545 83.214-66.243 66.242 65.097 72.33 66.243-66.242z" fill="#910035"/><path d="m54.972 75v180.298l3.526 4.702h25.122l61.352-105.971v-79.029z" fill="#ff936a"/><path d="m174.972 0h57.4v153.39h-57.4z" fill="#c40048"/><path d="m232.372 0h32.6v153.39h-32.6z" fill="#910035"/><path d="m389.882 320.95-90.91 148.08c-14.14 22.93-39.06 38.09-66.6 41.04v-439.49c2.48-.38 5.02-.58 7.6-.58h85.494l-.071 57.16c10.309 4.41 20.1 9.99 29.217 16.7 27.56 20.27 46.29 49.43 52.73 82.11 6.42 32.56.22 66.3-17.46 94.98z" fill="#ff4a4a"/><path d="m55.112 258.67c-.01-.11-.01-.22-.02-.33-.048-1.013-.084-2.027-.109-3.042l86.615-52.087 48.593-87.821c2.1-22.93 19.67-41.38 42.18-44.81v439.49c-3.25.34-6.54.52-9.85.52-33.15 0-62.31-17.52-80.02-48.07l-.51-.97-59.35-122.14-14.43-29.7c-3.125-6.903-6.362-15.421-8.891-25.403-2.43-9.593-3.639-18.297-4.208-25.637z" fill="#ff936a"/><g fill="#ffd298"><path d="m55.09 258.241c-.046-.98-.081-1.961-.104-2.943.023.982.058 1.963.104 2.943z"/><path d="m116.455 255c40.602 0 73.516-32.915 73.516-73.517v-61.483c0-1.556.081-3.092.22-4.611-32.923 2.262-63.76 14.492-87.804 35.02-22.99 19.628-38.392 45.294-44.541 74.224-2.145 10.093-3.09 20.26-2.866 30.368h61.475z"/></g><path d="m354.609 143.856c-21.14-15.548-45.882-25.052-72.353-27.924l-13.902-.578h-.001l-3.381-.141v.115l-15.178-.115v126.146c0 45.046 17.542 87.396 49.394 119.246l21.213-21.213c-26.186-26.185-40.606-61-40.606-98.033v-8.043c14.047 8.106 29.844 12.13 45.687 12.13 22.084 0 44.247-7.801 61.832-23.188l12.537-10.971 2.817-2.638c-8.824-25.595-25.472-48.179-48.059-64.793z" fill="#ff936a"/></g></svg>