<svg id="Layer_1" enable-background="new 0 0 496 496" height="512" viewBox="0 0 496 496" width="512" xmlns="http://www.w3.org/2000/svg"><path d="m402.11 152.508c-39.189-18.173-28.663-69.475-28.663-69.475-38.584 35.289-102.321 5.221-102.321 5.221-42.003 32.374-84.22 5.909-84.22 5.909-40.478 17.192-71.918-10.753-71.918-10.753 6.703 35.761-22.295 47.631-22.295 47.631 31.127 49.644 4.163 83.129 4.163 83.129 49.307 11.761 55.39 79.444 37.326 100.286l8.039 6.707c20.791 17.345 47.194 26.5 74.253 25.745l99.877-2.785c4.41-12.398 6.265-35.614 47.403-44.946-8.248-33.078-2.458-59.097 30.867-73.831-13.6-43.563 7.489-72.838 7.489-72.838z" fill="#ffa991"/><path d="m115.915 84.179c-.607-.487-.927-.77-.927-.77.638 3.405.32 4.236.927.77z" fill="#de9191"/><path d="m373.448 83.032c-.756.692-.717.021-.519 3.268.275-2.076.519-3.268.519-3.268z" fill="#de9191"/><path d="m316.949 326.685-99.877 2.786c-26.914.751-52.644-7.719-76.366-27.508-1.565 5.014-3.76 9.304-6.525 12.493l8.039 6.707c20.791 17.345 47.194 26.5 74.253 25.745l99.877-2.785c4.41-12.398 6.265-35.614 47.403-44.946-1.433-5.746-2.43-11.273-2.945-16.571-37.7 9.831-39.579 32.048-43.859 44.079z" fill="#de9191"/><path d="m111.494 113.027c15.065 6.518 40.022 12.835 68.916 2.344 0 0 49.384 26.465 98.517-5.909 0 0 51.878 20.914 95.282 7.37-4.107-17.487-.762-33.799-.762-33.799-38.584 35.289-102.321 5.221-102.321 5.221-42.003 32.374-84.22 5.909-84.22 5.909-40.478 17.192-71.918-10.753-71.918-10.753 2.384 12.718.243 22.401-3.494 29.617z" fill="#de9191"/><path d="m198.09 209.025c-.312-.415-.62-.84-.925-1.269-.775.149-1.546.316-2.31.503 1.911.424 3.235.766 3.235.766z" fill="#de9191"/><g fill="#b86c72"><path d="m379.179 280.489c-2.048 0-4.096-.781-5.659-2.345-11.126-11.134-10.579-33.599-10.479-36.123.705-17.868-5.798-32.881-17.75-45.514-9.904-10.469-5.817-27.583 7.674-32.413 11.09-3.97 25.277-11.058 29.883-22.284 1.677-4.088 6.35-6.038 10.438-4.364 4.087 1.678 6.042 6.351 4.364 10.438-5.416 13.196-19.003 24.011-39.293 31.274-2.681.959-3.373 4.313-1.444 6.353 10.853 11.472 23.494 30.699 22.113 57.178-.201 5.8.95 19.28 5.811 24.145 5.053 5.055 1.404 13.655-5.658 13.655z"/><path d="m162.203 255.749c-1.608-5.148-4.658-10.114-7.908-15.171-1.658-2.58-5.107-7.032-9.579-7.867-2.308-.434-7.204 2.723-7.678 4.534-.842 4.338-5.038 7.168-9.377 6.32-4.337-.842-7.169-5.049-6.326-9.386 2.748-14.15 28.837-29.61 46.42-2.252 3.711 5.775 7.52 12.003 9.721 19.051 7.864 25.172 25.317 36.653 53.366 35.121 4.411-.228 8.184 3.138 8.426 7.55s-3.138 8.185-7.549 8.427c-35.382 1.945-59.435-14.057-69.516-46.327z"/><path d="m286.891 334.993c-7.34 0-10.778-9.115-5.323-13.982.883-.788 4.199-5.603 3.044-13.141-1.359-8.879-9.998-26.65-52.58-45.912-4.026-1.821-5.813-6.561-3.992-10.586s6.56-5.811 10.586-3.992c37.763 17.081 58.559 36.64 61.812 58.133 2.123 14.026-4.191 23.868-8.257 27.472-1.52 1.346-3.409 2.008-5.29 2.008z"/><path d="m169.509 259.021c-3.445 0-6.626-2.243-7.662-5.713-4.504-15.087 1.846-36.001 13.588-44.757 15.578-11.614 37.539-11.968 56.037-5.743 8.617 2.899 12.619 5.214 55.548 26.925 3.942 1.993 5.522 6.806 3.529 10.749-1.995 3.942-6.807 5.523-10.75 3.528-43.05-21.771-46.146-23.587-53.429-26.038-13.255-4.457-30.076-5.016-41.372 3.406-6.354 4.738-10.375 18.798-7.821 27.352 1.533 5.131-2.318 10.291-7.668 10.291z"/><path d="m225.441 217.319c-2.431 0-4.832-1.104-6.404-3.197-21.579-28.74-22.218-69.437 15.211-74.538 29.446-4.014 46.488-14.052 55.599-21.766 10.508-8.897 13.448-16.997 13.639-18.617.091-4.375 3.734-7.868 8.074-7.831 4.418.043 7.966 3.658 7.923 8.076-.066 6.897-5.768 18.779-18.358 29.774-19.508 17.037-45.96 23.66-64.716 26.217-7.72 1.052-12.543 4.128-14.747 9.403-3.4 8.14-.991 24.811 10.169 39.676 3.997 5.322.098 12.803-6.39 12.803zm78.044-118.063v.038c0-.013 0-.025 0-.038z"/><path d="m288.642 303.741c-8.377 0-11.096-11.299-3.661-15.118 12.679-6.512 25.836-13.766 35.145-24.483 7.367-8.482 13.822-22.157 9.845-35.098-3.658-11.908-18.143-28.663-39.571-35.942-15.331-5.21-16.368-26.171-2.18-33.271 36.297-18.165 49.098-36.001 41.504-57.83-1.452-4.174.754-8.733 4.927-10.185 4.17-1.453 8.732.754 10.184 4.927 15.599 44.84-33.365 69.344-49.456 77.396-1.653.826-1.576 3.221.167 3.812 26.267 8.924 44.546 29.56 49.718 46.393 4.937 16.062-.067 35.332-13.059 50.29-11.176 12.867-25.847 20.998-39.915 28.224-1.169.6-2.418.885-3.648.885z"/><path d="m141.242 203.197c-12.933 0-28.199-5.569-38.058-11.652-3.761-2.318-4.93-7.247-2.611-11.008 2.318-3.76 7.247-4.93 11.008-2.611 6.946 4.249 27.82 13.771 40.688 6.812 8.792-4.756 13.542-16.939 14.121-36.214.513-17.067 10.173-31.564 27.937-41.924 12.619-7.36 25.023-10.07 25.545-10.182 4.321-.925 8.572 1.826 9.498 6.146.924 4.316-1.821 8.564-6.134 9.495-.462.102-40.016 9.07-40.853 36.944-.883 29.384-11.761 54.194-41.141 54.194z"/><path d="m135.177 162.347c-5.244 0-9.086-4.972-7.738-10.054 8.214-30.954-18.333-63.443-18.602-63.768-2.817-3.397-2.354-8.439 1.039-11.262 3.392-2.823 8.426-2.37 11.254 1.02 1.316 1.578 32.128 39.095 21.773 78.113-.949 3.584-4.186 5.951-7.726 5.951z"/></g><path d="m458.822 107.627s21.675-41.161-7.599-84.145c-27.28-31.7-78.578-1.536-78.578-1.536s-45.676-48.433-86.889-1.399c0 0-25.474-26.93-75.451.29-15.796-18.995-50.603-26.725-75.905-2.666-69.611-28.208-83.314 46.725-83.314 46.725-57.155 26.52-19.037 88.305-19.037 88.305-43.787 54.379 15.905 91.862 15.905 91.862-21.748 17.703-4.75 89.083 50.413 75.973 11.09-2.635-13.157 47.004 6.578 60.456 7.681 5.236 17.076 5.933 23.888-.394 14.106-13.103-4.239-55.58 5.349-66.643 18.064-20.843 11.981-88.525-37.326-100.286 0 0 26.963-33.485-4.163-83.129 0 0 28.998-11.87 22.295-47.631 0 0 31.44 27.945 71.918 10.753 0 0 42.217 26.465 84.22-5.909 0 0 63.737 30.068 102.321-5.221 0 0-10.526 51.302 28.663 69.475 0 0-21.089 29.275-7.488 72.837-33.325 14.734-39.116 40.753-30.867 73.831-41.139 9.332-42.994 32.548-47.403 44.946-56.285-39.008-87.194-8.627-93.805 2.599-30.298 51.445 16.259 149.28 16.259 149.28h18.388c31.329-34.976 23.88-85.607 23.88-85.607s63.719 41.673 90.315-28.607c0 0 77.747-2.305 66.395-84.634 0 0 52.974-34.083 33.131-95.98 0 0 27-49.325-12.093-93.545z" fill="#ff5a7f"/><path d="m458.822 107.627c-3.475-3.004-8.617.722-6.862 4.967 15.013 36.318-3.139 69.48-3.139 69.48 19.843 61.897-33.131 95.98-33.131 95.98 11.352 82.329-66.395 84.634-66.395 84.634-26.596 70.279-90.315 28.607-90.315 28.607s7.448 50.63-23.88 85.606h-4.251c4.455 11.734 7.957 19.098 7.957 19.098h18.388c31.329-34.977 23.88-85.607 23.88-85.607s63.719 41.673 90.315-28.607c0 0 77.747-2.305 66.395-84.634 0 0 52.974-34.082 33.131-95.98 0 .001 27-49.324-12.093-93.544z" fill="#d04d7f"/><path d="m59.529 89.396s13.703-74.934 83.314-46.726c25.301-24.059 60.109-16.329 75.906 2.666 49.977-27.219 75.451-.29 75.451-.29 41.213-47.034 86.889 1.399 86.889 1.399s51.298-30.164 78.578 1.536c2.12 3.113 3.965 6.215 5.578 9.294-1.892-10.607-6.079-22.131-14.02-33.792-27.28-31.7-78.578-1.536-78.578-1.536s-45.676-48.433-86.889-1.399c0 0-25.474-26.929-75.451.29-15.798-18.996-50.605-26.726-75.907-2.667-69.611-28.209-83.314 46.725-83.314 46.725-47.297 21.946-29.352 68.04-21.755 83.288-3.772-19.647-.803-44.404 30.198-58.788z" fill="#ff8595"/></svg>