<svg id="Capa_1" enable-background="new 0 0 512 512" height="512" viewBox="0 0 512 512" width="512" xmlns="http://www.w3.org/2000/svg"><g><circle cx="256" cy="256" fill="#e27a4e" r="256"/><path d="m280.019 510.87c122.242-11.377 219.527-108.69 230.86-230.945l-210.985-210.985-112.913 170.93s30.468 30.48 30.708 30.716c-1.538-.426-4.548-1.624-4.548-1.624l-57-57-48.695 5.604 28.192 27.473-33.085 21.921 22 21.247-9.609 26.826 97.266 96.903v31.124z" fill="#dc455b"/><g><g><path d="m109.872 286.275h43.841v21.921h-43.841z" fill="#f6dfb9" transform="matrix(.94 -.342 .342 .94 -93.713 63.001)"/></g><g><path d="m358.383 203.803h43.841v21.921h-43.841z" fill="#eebda9" transform="matrix(.94 -.342 .342 .94 -50.519 143.025)"/></g><g><path d="m120.832 192.844h21.921v43.841h-21.921z" fill="#f6dfb9" transform="matrix(.342 -.94 .94 .342 -115.096 265.152)"/></g><g><path d="m369.343 275.315h21.921v43.841h-21.921z" fill="#eebda9" transform="matrix(.342 -.94 .94 .342 -29.081 552.94)"/></g><g><path d="m102.552 245.04h43.842v21.921h-43.842z" fill="#f6dfb9"/></g><g><path d="m365.605 245.04h43.842v21.921h-43.842z" fill="#eebda9"/></g><g><path d="m299.893 164.275v-95.335h-87.684v95.335c-19.722 8.593-32.882 28.11-32.882 50.068 0 9.492 1.096 21.161 9.653 27.189 16.185 11.406 36.805-9.404 67.02-9.426h.051c30.244 0 50.798 20.957 67.042 9.536 8.578-6.028 9.682-17.756 9.682-27.299 0-21.958-13.16-41.475-32.882-50.068z" fill="#f1f6ff"/></g><path d="m332.775 214.343c0 9.543-1.103 21.271-9.682 27.299-16.243 11.421-36.798-9.536-67.042-9.536h-.051v-163.166h43.893v95.335c19.722 8.593 32.882 28.11 32.882 50.068z" fill="#f1f6ff"/><path d="m332.775 214.343c0 9.543-1.103 21.271-9.682 27.299-16.243 11.421-36.798-9.536-67.042-9.536h-.051v-163.166h43.893v95.335c19.722 8.593 32.882 28.11 32.882 50.068z" fill="#dfe5f2"/><path d="m299.893 338.949v104.111h-87.684v-104.111c-36.681-15.973-39.575-62.819-24.603-72.683 14.41-9.492 28.008 11.202 43.959 3.5 4.465-2.163 10.727-13.737 24.435-13.766h.051c13.73 0 19.992 11.596 24.464 13.745 16.046 7.709 29.44-13.109 43.959-3.573 14.98 9.849 12.152 56.775-24.581 72.777z" fill="#f1f6ff"/><path d="m299.893 338.949v104.111h-43.893v-187.06h.051c13.73 0 19.992 11.596 24.464 13.745 16.046 7.709 29.44-13.109 43.959-3.573 14.98 9.849 12.152 56.775-24.581 72.777z" fill="#dfe5f2"/></g></g></svg>