<svg id="Layer_1" enable-background="new 0 0 512 512" height="512" viewBox="0 0 512 512" width="512" xmlns="http://www.w3.org/2000/svg"><g><path d="m285.623 220.514c-6.461-5.528-16.171-4.753-21.681 1.733-30.398 35.782-50.92 82.221-59.346 134.297-6.341 39.192-3.698 67.821-3.583 69.02.817 8.474 8.315 14.671 16.766 13.866 8.447-.807 14.646-8.338 13.854-16.815-.025-.262-2.376-26.571 3.473-62.029 5.306-32.167 18.677-78.804 52.244-118.317 5.511-6.486 4.738-16.226-1.727-21.755z" fill="#eb866c"/><path d="m293.923 72.5h145.135c72.537 0 74.608 29.32 72.466 66.899-1.746 30.633-19.003 66.755-60.683 96.957-77.662 56.276-156.918 53.293-156.918 53.293h-38.234v-217.149z" fill="#e84941"/><path d="m439.058 72.5h-30.905c72.537 0 74.608 29.32 72.466 66.899-1.746 30.633-19.003 66.755-60.683 96.957-66.537 48.214-134.236 52.931-152.269 53.293h26.257s79.256 2.983 156.918-53.293c41.68-30.202 58.936-66.323 60.683-96.957 2.14-37.579.07-66.899-72.467-66.899z" fill="#db423b"/><path d="m293.923 72.5s-86.026 0-142.58 0-151.343 41.362-151.343 148.742 1.593 164.651 80.45 164.651 92.876-49.971 132.225-76.36c27.082-18.162 31.198-17.499 62.528-19.885 32.408-2.468 67.307-71.587 67.307-147.152.002-26.248-.795-69.996-48.587-69.996z" fill="#fa6f5f"/><path d="m293.923 72.5s-12.415 0-30.905 0c47.793 0 48.589 43.748 48.589 69.996 0 75.564-34.899 144.683-67.308 147.152-31.33 2.386-35.446 1.723-62.528 19.885-36.495 24.474-51.211 69.226-116.063 75.591 4.59.506 9.49.768 14.743.768 78.857 0 92.876-49.971 132.225-76.36 27.082-18.162 31.198-17.499 62.528-19.885 32.408-2.468 67.308-71.587 67.308-147.152 0-26.247-.797-69.995-48.589-69.995z" fill="#eb5e4e"/></g></svg>