<svg id="Capa_1" enable-background="new 0 0 497.157 497.157" height="512" viewBox="0 0 497.157 497.157" width="512" xmlns="http://www.w3.org/2000/svg"><g><path d="m203.271 232.365v157.004c0 32.201-23.35 59.652-55.135 64.817-2.474.402-4.784 1.496-6.664 3.155l-33.702 29.758c-17.589 15.531-44.691 12.738-58.743-6.054-22.749-30.425-35.043-67.395-35.043-105.385 0-75.298 21.506-149.03 61.988-212.52l18.028-28.274c12.984-20.364 38.582-28.666 61.046-19.798 11.16 4.405 20.384 12.644 26.016 23.238 6.582 12.38 11.732 25.408 15.418 38.83z" fill="#f79595"/><path d="m101.347 475.02c-22.75-30.425-35.044-67.395-35.044-105.385 0-75.298 21.506-149.03 61.988-212.52l18.028-28.274c3.146-4.934 7.05-9.158 11.453-12.603-.892-.414-1.806-.807-2.725-1.169-22.464-8.868-48.062-.566-61.046 19.798l-18.028 28.273c-40.482 63.49-61.988 137.222-61.988 212.52 0 37.99 12.294 74.96 35.044 105.385 14.052 18.792 41.153 21.585 58.743 6.054l3.239-2.86c-3.612-2.443-6.894-5.515-9.664-9.219z" fill="#f37c7c"/><path d="m269.416 232.365v157.004c0 32.201 23.35 59.652 55.135 64.817 2.474.402 4.784 1.496 6.664 3.155l33.702 29.758c17.589 15.531 44.691 12.738 58.743-6.054 22.75-30.425 35.044-67.395 35.044-105.385 0-75.298-21.506-149.03-61.988-212.52l-18.028-28.274c-12.984-20.364-38.582-28.666-61.046-19.798-11.16 4.405-20.384 12.644-26.016 23.238-6.582 12.38-11.732 25.408-15.418 38.83z" fill="#f79595"/><path d="m257.251 5.523v132.205c0 11.691 3.857 23.055 10.973 32.331l31.845 41.512c2.864 3.733 2.776 8.948-.211 12.583l-12.086 14.706c-3.641 4.43-10.232 4.952-14.525 1.15l-32.944-29.175c-3.291-2.914-8.224-2.964-11.572-.117l-35.2 29.931c-4.006 3.406-10.065 2.671-13.14-1.595l-11.299-15.675c-2.325-3.225-2.26-7.594.16-10.748l32.658-42.573c7.116-9.276 10.973-20.64 10.973-32.331v-132.204c0-3.05 2.473-5.523 5.523-5.523h33.324c3.049 0 5.521 2.473 5.521 5.523z" fill="#ffe5c2"/><g><path d="m177.358 281.104c-30.736 0-55.742-25.006-55.742-55.742 0-4.142 3.357-7.5 7.5-7.5s7.5 3.358 7.5 7.5c0 22.465 18.277 40.742 40.742 40.742 4.143 0 7.5 3.358 7.5 7.5s-3.358 7.5-7.5 7.5z" fill="#f37c7c"/></g><g><path d="m119.658 288.708c-6.877 0-13.399-2.985-17.895-8.19s-6.5-12.092-5.499-18.896l.295-2.006c.601-4.099 4.419-6.931 8.51-6.331 4.099.602 6.933 4.412 6.33 8.51l-.295 2.008c-.371 2.526.343 4.98 2.011 6.911s3.991 2.994 6.543 2.994c4.143 0 7.5 3.358 7.5 7.5s-3.358 7.5-7.5 7.5z" fill="#f37c7c"/></g><g><path d="m291.776 281.104c-4.143 0-7.5-3.358-7.5-7.5s3.357-7.5 7.5-7.5c22.465 0 40.742-18.277 40.742-40.742 0-4.142 3.357-7.5 7.5-7.5s7.5 3.358 7.5 7.5c0 30.736-25.006 55.742-55.742 55.742z" fill="#f37c7c"/></g><g><path d="m349.476 288.708c-4.143 0-7.5-3.358-7.5-7.5s3.357-7.5 7.5-7.5c2.552 0 4.875-1.063 6.543-2.994s2.382-4.385 2.011-6.91l-.295-2.009c-.603-4.098 2.231-7.908 6.33-8.51 4.09-.597 7.909 2.231 8.51 6.331l.295 2.008c1.001 6.803-1.003 13.69-5.499 18.895s-11.018 8.189-17.895 8.189z" fill="#f37c7c"/></g><g fill="#fef0ae"><path d="m412.054 40.307-52.5 53.206c-1.275 1.292-.753 3.472.969 4.047l15.066 5.029c1.418.473 2.086 2.095 1.412 3.429l-24.911 49.378c-1.221 2.42 1.809 4.739 3.826 2.929l67.158-60.27c1.387-1.245.933-3.521-.826-4.138l-15.661-5.495c-1.203-.422-1.882-1.696-1.561-2.93l11.145-42.846c.631-2.427-2.356-4.124-4.117-2.339z"/><path d="m480.692 153.246-59.673 14.032c-1.449.341-2.038 2.083-1.094 3.233l8.266 10.067c.778.948.534 2.365-.516 2.998l-38.846 23.414c-1.904 1.148-.812 4.08 1.379 3.703l72.934-12.54c1.506-.259 2.184-2.037 1.232-3.233l-8.476-10.65c-.651-.818-.566-1.999.195-2.716l26.437-24.887c1.498-1.41.164-3.892-1.838-3.421z"/></g></g></svg>