<?xml version="1.0" encoding="iso-8859-1"?>
<!-- Generator: Adobe Illustrator 19.0.0, SVG Export Plug-In . SVG Version: 6.00 Build 0)  -->
<svg version="1.1" id="Capa_1" xmlns="http://www.w3.org/2000/svg" xmlns:xlink="http://www.w3.org/1999/xlink" x="0px" y="0px"
	 viewBox="0 0 512 512" style="enable-background:new 0 0 512 512;" xml:space="preserve">
<g>
	<path style="fill:#FAC176;" d="M512,185.379c0.042-13.27-9.773-24.508-22.927-26.253c-13.155-1.745-25.56,6.546-28.979,19.368
		c-11.844-4.822-25.441-0.427-32.221,10.417c-3.94-2.296-8.416-3.514-12.977-3.531c-9.077-0.005-17.517,4.665-22.334,12.359
		c-3.94-2.296-8.416-3.514-12.977-3.531c-9.077-0.005-17.517,4.665-22.334,12.359c-3.94-2.296-8.416-3.514-12.977-3.531
		c-11.092,0.039-20.988,6.976-24.806,17.39c-4.954-5.445-11.971-8.553-19.332-8.563c-11.092,0.039-20.988,6.976-24.806,17.39
		c-4.954-5.445-11.971-8.553-19.332-8.563c-5.235-6.189-11.902-11.007-19.421-14.036c23.04-9.092,49.788-18.979,81.214-30.102
		C467.862,123.586,485.517,70.621,485.517,35.31c0-17.655-17.655-26.483-35.31-26.483c-17.655,0-70.621,8.828-158.897,8.828
		S191.294,0,105.931,0S0,70.621,0,150.069S8.828,256,8.828,308.966c0,17.655,0,26.483,17.655,26.483
		c10.074-0.052,19.744-3.97,27.012-10.946c-0.353,6.268-0.53,12.888-0.53,19.774C52.966,467.862,118.643,512,194.207,512
		s114.759-97.103,114.759-97.103c3.014,19.358,3.074,39.062,0.177,58.439c-1.747,12.091,3.162,24.185,12.843,31.637
		c9.68,7.452,22.627,9.105,33.869,4.323c11.242-4.782,19.031-15.254,20.377-27.397c2.563-28.143,3.682-56.399,3.354-84.657
		c0-52.083-17.126-86.952-51.2-88.188c2.338-2.508,4.167-5.446,5.385-8.651c7.12,7.802,18.219,10.582,28.176,7.057
		c9.957-3.524,16.836-12.668,17.462-23.212c7.441,6.944,18.224,8.964,27.673,5.184c9.45-3.78,15.865-12.679,16.464-22.839
		c7.695,7.161,18.909,9.065,28.536,4.846s15.828-13.755,15.778-24.266c0-0.53-0.177-1.148-0.177-1.677
		c2.875,1.098,5.926,1.666,9.004,1.677c7.027,0.009,13.768-2.778,18.736-7.746s7.756-11.71,7.746-18.736
		c-0.017-4.561-1.235-9.036-3.531-12.977C507.335,202.896,512.005,194.456,512,185.379z M266.063,362.372
		c-1.942,3.354-3.884,6.709-5.914,10.063c2.03-3.354,3.972-6.797,5.914-10.24V362.372z"/>
	<path style="fill:#D75E72;" d="M450.207,8.828c-17.655,0-70.621,8.828-158.897,8.828S191.265,0,105.931,0S0,70.621,0,150.069
		S8.828,256,8.828,308.966c0,17.655,0,26.483,17.655,26.483c10.078-0.035,19.751-3.966,26.997-10.97
		c5.464-106.624,55.908-130.272,114.244-130.272c23.6-0.975,47.123,3.276,68.889,12.448c23.027-9.093,49.754-19.011,81.18-30.103
		C467.862,123.586,485.517,70.621,485.517,35.31C485.517,17.655,467.862,8.828,450.207,8.828z"/>
	<path style="fill:#F09372;" d="M512,185.379c0.031-13.273-9.79-24.508-22.948-26.253c-13.158-1.745-25.568,6.542-28.998,19.364
		c-11.833-4.818-25.416-0.42-32.178,10.42c-12.22-7.097-27.868-3.185-35.31,8.828c-12.22-7.097-27.868-3.185-35.31,8.828
		c-6.719-3.899-14.824-4.608-22.118-1.936c-7.294,2.672-13.022,8.45-15.632,15.767c-6.218-6.786-15.531-9.829-24.556-8.024
		c-9.025,1.805-16.451,8.196-19.581,16.851c-5.551-6.058-13.615-9.175-21.797-8.424c-8.183,0.75-15.545,5.281-19.901,12.249
		c-6.719-3.899-14.824-4.608-22.118-1.936c-7.294,2.672-13.022,8.45-15.632,15.767c-4.978-5.429-12.002-8.524-19.368-8.535
		c-15.381,0-21.746,18.247-25.147,30.395c-1.142,0.62-2.246,1.306-3.306,2.057c-19.084,13.169-24.513,45.958-24.513,73.479
		c0,35.31,0,79.448,70.621,79.448c32.505,0,50.043-24.318,65.537-50.561c7.549-13.926,15.93-27.384,25.098-40.301
		c5.866-2.777,10.507-7.611,13.044-13.584c1.196-0.95,2.414-1.857,3.668-2.693c2.398,0.763,4.896,1.17,7.412,1.208
		c7.426-0.01,14.497-3.178,19.447-8.713c2.312-2.515,4.12-5.451,5.323-8.649c7.132,7.78,18.222,10.547,28.173,7.03
		c9.951-3.518,16.838-12.64,17.496-23.174c7.45,6.915,18.219,8.918,27.657,5.143c9.438-3.775,15.855-12.652,16.481-22.798
		c7.71,7.136,18.919,9.02,28.538,4.796c9.619-4.224,15.818-13.75,15.782-24.256c0-0.573-0.132-1.109-0.169-1.674
		c10.394,3.88,22.104,0.816,29.267-7.656s8.235-20.529,2.681-30.133C507.324,202.884,511.991,194.452,512,185.379z"/>
	<path style="fill:#7F6E5D;" d="M471.81,195.138c-4.362-2.171-9.658-0.406-11.845,3.948c-6.207,12.414-44.888,21.603-53.897,21.603
		c-9.638,0-38.965,0-59.207,20.242c-0.904,0.904-1.878,1.78-2.898,2.637c0.263-2.663,0.312-4.626,0.312-5.224
		c-0.004-4.862-3.94-8.805-8.802-8.819h-0.026c-4.858,0.008-8.8,3.935-8.828,8.793c-0.078,6.214-1.584,12.326-4.402,17.864
		c-4.476,1.895-8.935,3.502-13.074,4.79c-6.811,0.136-13.544,1.483-19.883,3.977c-7.373,0.241-14.526,2.566-20.633,6.705
		c-0.344-6.772-1.949-13.42-4.733-19.604c-1.406-2.829-4.217-4.691-7.37-4.883c-3.153-0.192-6.169,1.316-7.907,3.954
		s-1.935,6.003-0.516,8.826c3.816,8.678,3.839,18.555,0.063,27.251c-5.77,2.921-12.185,4.335-18.648,4.111
		c-8.192,0.163-16.187,2.547-23.13,6.899c-0.538-5.019-2.146-9.864-4.715-14.209c-3.239-6.069-9.423-9.996-16.293-10.345
		c-4.924-0.045-8.977,3.862-9.112,8.784c-0.063,2.307,0.81,4.54,2.418,6.195c1.609,1.654,3.817,2.588,6.125,2.59
		c1.528,1.201,2.621,2.87,3.112,4.75c1.93,5.927,1.347,12.385-1.612,17.871c-0.308,0.724-0.514,1.487-0.614,2.267
		c-2.695,3.13-5.162,6.364-7.481,9.6c-4.985-5.319-12.036-8.209-19.32-7.918c-4.875,0-8.828,3.952-8.828,8.828
		s3.952,8.828,8.828,8.828c2.098-0.252,4.209,0.362,5.844,1.7c1.636,1.338,2.655,3.285,2.823,5.392
		c-4.356,7.809-7.128,13.989-7.952,15.916c-0.922,2.151-0.951,4.581-0.081,6.754c0.87,2.173,2.568,3.911,4.719,4.832
		c1.096,0.475,2.279,0.719,3.474,0.716c3.533,0.003,6.726-2.104,8.112-5.353c1.509-3.517,3.858-8.322,6.811-13.613
		c8.079-3.2,17.13-2.871,24.956,0.906c2.907,2.146,4.514,5.629,4.259,9.233c0,4.875,3.952,8.828,8.828,8.828
		s8.828-3.952,8.828-8.828c0.256-9.285-4.082-18.099-11.595-23.561c-6.622-4.406-14.473-6.59-22.419-6.238
		c4.124-5.462,8.871-10.425,14.144-14.787c0.715,0.247,1.459,0.397,2.214,0.447c10.102-0.969,20.256,1.211,29.069,6.241
		c2.223,2.264,5.49,3.16,8.556,2.348c3.067-0.812,5.462-3.207,6.274-6.274c0.812-3.067-0.085-6.333-2.348-8.556
		c-2.128-1.942-4.535-3.554-7.142-4.78c9.339-2.829,17.869-7.843,24.884-14.626c5.076-5.892,12.383-9.395,20.155-9.664l0.006-0.001
		l0.002,0.001l0.002-0.001c7.012-0.444,13.943-1.745,20.638-3.876c10.166,0.025,20.295,1.239,30.179,3.618
		c4.719,1.152,9.482-1.725,10.658-6.438c1.176-4.713-1.676-9.491-6.382-10.692c-0.352-0.089-1.032-0.251-1.85-0.439
		c5.359-3.142,10.321-6.917,14.78-11.243c2.71-2.63,5.758-4.888,9.062-6.715c0.758,0.268,1.549,0.428,2.352,0.474
		c7.931,0.911,14.894,5.697,18.586,12.776c2.187,4.349,7.482,6.106,11.836,3.93s6.124-7.467,3.958-11.826
		c-2.701-4.982-6.264-9.445-10.524-13.183c4.855-0.468,8.994-0.524,11.455-0.524c9.164,0,58.276-8.543,69.69-31.362
		c1.047-2.094,1.22-4.519,0.479-6.74C475.498,198.021,473.905,196.185,471.81,195.138z"/>
	<path style="fill:#F09372;" d="M141.241,167.724c-32.81,0.469-64.824-10.118-90.885-30.056c-4.19-3.3-6.528-8.421-6.276-13.748
		c0.252-5.327,3.063-10.205,7.547-13.094c21.278-14.366,46.288-22.203,71.959-22.551c35.31,0,61.793,35.31,97.103,35.31
		C220.69,123.586,203.034,167.724,141.241,167.724z"/>
	<path style="fill:#7F6E5D;" d="M458.103,40.19c-2.184-4.357-7.483-6.124-11.845-3.948c-14.578,6.435-27.386,16.295-37.336,28.741
		c-7.771,9.294-16.494,17.748-26.026,25.224c-4.489,3.546-9.3,6.663-14.371,9.31c1.693-6.55,2.445-13.307,2.233-20.068
		c0-4.875-3.952-8.828-8.828-8.828s-8.828,3.952-8.828,8.828c0.359,10.011-1.945,19.938-6.676,28.768
		c-10.318,2.566-20.824,4.304-31.419,5.198c-5.849,0.465-11.656,1.357-17.374,2.67c-3.792-15.376-17.018-26.586-32.807-27.808
		c-20.819,0-49.172,19.034-68.034,37.897c-3.394,3.456-3.369,9.001,0.056,12.426c3.425,3.425,8.97,3.45,12.426,0.056
		c18.655-18.655,42.535-32.724,55.552-32.724c3.733,0,17.655,4.491,17.655,26.483c0,18.414-15.897,34.31-32.724,51.138
		c-18.63,18.629-37.897,37.896-37.897,63.62c0,44.457-12.871,53.897-12.784,53.897h0.009c-4.349,2.187-6.106,7.482-3.929,11.836
		s7.467,6.124,11.826,3.958c3.758-1.879,22.534-14.086,22.534-69.69c0-18.414,15.897-34.31,32.724-51.138
		c18.285-18.285,37.076-37.221,37.769-62.238l0.042-0.124c5.503-1.442,11.133-2.348,16.81-2.707
		c27.809-1.077,54.655-10.47,77.069-26.965c10.375-8.157,19.877-17.367,28.353-27.482c8.443-10.664,19.391-19.074,31.871-24.483
		c2.095-1.047,3.687-2.883,4.428-5.105C459.323,44.709,459.151,42.284,458.103,40.19z"/>
</g>
<g>
</g>
<g>
</g>
<g>
</g>
<g>
</g>
<g>
</g>
<g>
</g>
<g>
</g>
<g>
</g>
<g>
</g>
<g>
</g>
<g>
</g>
<g>
</g>
<g>
</g>
<g>
</g>
<g>
</g>
</svg>
