<svg id="Capa_1" enable-background="new 0 0 493.8 493.8" height="512" viewBox="0 0 493.8 493.8" width="512" xmlns="http://www.w3.org/2000/svg"><g><path d="m370.3 82.04c-4.25-1.82-8.32-4.01-12.16-6.55-3.84-2.53-7.46-5.41-10.8-8.6-15.4-14.67-24.11-35.01-24.11-56.28v-.834c0-5.399-4.377-9.776-9.776-9.776h-59.554l-2.23 4.125h-11.035l-1.735-4.125h-58.554c-5.399 0-9.776 4.377-9.776 9.776v.834c0 10.63-2.18 21.04-6.28 30.61-4.1 9.58-10.13 18.34-17.83 25.67-6.69 6.38-14.46 11.51-22.96 15.15l-15 6.44v114.14 104.92c0 15.31 3.72 30.4 10.84 43.96l4.55 8.67c.81 1.54 1.18 3.26 1.07 4.99l-6.79 107.181c-.737 11.625 8.494 21.459 20.142 21.459h100.588v-.001l3.003-4.836h8.524l3.473 4.836v.001h101.588c11.649 0 20.879-9.833 20.142-21.459l-6.79-107.181c-.11-1.73.26-3.45 1.07-4.99l4.55-8.67c7.12-13.56 10.84-28.65 10.84-43.96v-104.92-114.14z" fill="#ffdfcf"/><path d="m411.59 99.77-26.29-11.29-66.891 81.789-6.307 119.539 73.198 17.732v17.84c0 8.5 2.19 16.87 6.36 24.28l3.184 5.666c.341.607.925 1.039 1.605 1.188l58.923 12.892c7.784 1.703 15.148-4.224 15.148-12.192v-99.864-.01c28.82-59.71 2.01-131.41-58.93-157.57z" fill="#ffdfcf"/><g><path d="m108.5 88.48-26.29 11.29c-60.94 26.16-87.75 97.86-58.93 157.57v.01 99.864c0 7.968 7.365 13.895 15.148 12.192l52.574-11.503c4.719-1.032 8.772-4.032 11.138-8.243 4.17-7.41 6.36-15.78 6.36-24.28v-17.84l72.433 8.754 11.786-182.343z" fill="#ffdfcf"/></g><path d="m323.23 10.61v-.834c0-5.399-4.377-9.776-9.776-9.776h-59.554l-2.23 4.125h-11.035l-1.735-4.125h-58.554c-5.399 0-9.776 4.377-9.776 9.776v.834c0 10.63-2.18 21.04-6.28 30.61-4.1 9.58-10.13 18.34-17.83 25.67-6.69 6.38-14.46 11.51-22.96 15.15l-15 6.44-26.29 11.29c-60.94 26.16-87.75 97.86-58.93 157.57v.01 99.864c0 7.968 7.365 13.895 15.148 12.192l29.123-6.372v-84.928-.01c-28.82-59.71-2.01-131.41 58.93-157.57l37.979-16.351c8.5-3.64 16.27-8.77 22.96-15.15 7.7-7.33 13.73-16.09 17.83-25.67 1.249-2.916 2.321-7.884 3.206-13.38 2.584-16.043 16.438-27.84 32.689-27.84l82.942-.006c-.569-3.793-.857-7.637-.857-11.519z" fill="#ffcebf"/><g><path d="m234.078 460.376-20.09-14.721c-.684-.501-1.509-.771-2.357-.771h-7.033c-8.323 0-15.07-6.747-15.07-15.07v-1.071c0-8.323 6.747-15.07 15.07-15.07 1.84 0 3.441-1.259 3.875-3.048l4.839-19.968c.433-1.788 2.035-3.048 3.875-3.048h61.563l5.578 23.016c.433 1.788 2.035 3.048 3.875 3.048 8.323 0 15.07 6.747 15.07 15.07v1.071c0 8.323-6.747 15.07-15.07 15.07h-7.033c-.848 0-1.673.27-2.357.771l-20.09 14.721c-7.336 5.375-17.31 5.375-24.645 0z" fill="#f9f7f8"/><path d="m234.078 460.376-20.09-14.721c-.684-.501-1.509-.771-2.357-.771h-7.033c-8.323 0-15.07-6.747-15.07-15.07v-1.071c0-8.323 6.747-15.07 15.07-15.07 1.84 0 3.441-1.259 3.875-3.048l4.839-19.968c.433-1.788 2.035-3.048 3.875-3.048h61.563l5.578 23.016c.433 1.788 2.035 3.048 3.875 3.048 8.323 0 15.07 6.747 15.07 15.07v1.071c0 8.323-6.747 15.07-15.07 15.07h-7.033c-.848 0-1.673.27-2.357.771l-20.09 14.721c-7.336 5.375-17.31 5.375-24.645 0z" fill="#f9f7f8"/><path d="m246.4 420.416c7.673 0 14.999-2.397 21.188-6.933l14.803-10.847-3.642-15.026h-61.563c-1.84 0-3.441 1.259-3.875 3.048l-2.903 11.978 14.803 10.847c6.19 4.536 13.516 6.933 21.189 6.933z" fill="#efedef"/><path d="m234.078 401.384-20.09-14.721c-.684-.501-1.509-.771-2.357-.771h-7.033c-8.323 0-15.07-6.747-15.07-15.07v-1.071c0-8.323 6.747-15.07 15.07-15.07 1.84 0 3.441-1.259 3.875-3.048l4.839-19.968c.433-1.788 2.035-3.048 3.875-3.048h61.563l5.578 23.016c.433 1.788 2.035 3.048 3.875 3.048 8.323 0 15.07 6.747 15.07 15.07v1.071c0 8.323-6.747 15.07-15.07 15.07h-7.033c-.848 0-1.673.27-2.357.771l-20.09 14.721c-7.336 5.376-17.31 5.376-24.645 0z" fill="#f9f7f8"/><path d="m246.9 365.622c7.673 0 14.999-2.397 21.188-6.933l15.242-11.169-4.581-18.902h-61.563c-1.84 0-3.441 1.259-3.875 3.048l-3.691 15.232 16.091 11.791c6.19 4.536 13.516 6.933 21.189 6.933z" fill="#efedef"/><path d="m234.578 346.591-20.09-14.721c-.684-.501-1.509-.771-2.357-.771h-7.033c-8.323 0-15.07-6.747-15.07-15.07v-1.071c0-8.323 6.747-15.07 15.07-15.07 1.84 0 3.441-1.259 3.875-3.048l4.839-19.968c.433-1.788 2.035-3.048 3.875-3.048h61.563l5.578 23.016c.433 1.788 2.035 3.048 3.875 3.048 8.323 0 15.07 6.747 15.07 15.07v1.071c0 8.323-6.747 15.07-15.07 15.07h-7.033c-.848 0-1.673.27-2.357.771l-20.09 14.721c-7.336 5.375-17.31 5.375-24.645 0z" fill="#f9f7f8"/><path d="m246.4 308.479c7.672 0 14.999-2.397 21.188-6.932l15.607-11.437-3.946-16.285h-61.563c-1.84 0-3.441 1.259-3.875 3.048l-3.359 13.859 14.759 10.815c6.19 4.535 13.517 6.932 21.189 6.932z" fill="#efedef"/><path d="m234.078 289.447-20.09-14.721c-.684-.501-1.509-.771-2.357-.771h-7.033c-8.323 0-15.07-6.747-15.07-15.07v-1.071c0-8.323 6.747-15.07 15.07-15.07 1.84 0 3.441-1.259 3.875-3.048l4.839-19.968c.433-1.788 2.035-3.048 3.875-3.048h61.563l5.578 23.016c.433 1.788 2.035 3.048 3.875 3.048 8.323 0 15.07 6.747 15.07 15.07v1.071c0 8.323-6.747 15.07-15.07 15.07h-7.033c-.848 0-1.673.27-2.357.771l-20.09 14.721c-7.336 5.375-17.31 5.375-24.645 0z" fill="#f9f7f8"/><path d="m246.4 251.412c7.673 0 14.999-2.397 21.188-6.933l15.199-11.137-4.038-16.661h-61.563c-1.84 0-3.441 1.259-3.875 3.048l-3.299 13.613 15.199 11.137c6.19 4.536 13.516 6.933 21.189 6.933z" fill="#efedef"/><path d="m234.078 232.38-20.09-14.721c-.684-.501-1.509-.771-2.357-.771h-7.033c-8.323 0-15.07-6.747-15.07-15.07v-1.071c0-8.323 6.747-15.07 15.07-15.07 1.84 0 3.441-1.259 3.875-3.048l4.839-19.968c.433-1.788 2.035-3.048 3.875-3.048h61.563l5.578 23.016c.433 1.788 2.035 3.048 3.875 3.048 8.323 0 15.07 6.747 15.07 15.07v1.071c0 8.323-6.747 15.07-15.07 15.07h-7.033c-.848 0-1.673.27-2.357.771l-20.09 14.721c-7.336 5.376-17.31 5.376-24.645 0z" fill="#f9f7f8"/><path d="m246.4 193.881c7.673 0 14.999-2.397 21.188-6.933l15.103-11.067-3.942-16.267h-61.563c-1.84 0-3.441 1.259-3.875 3.048l-3.203 13.219 15.103 11.067c6.19 4.536 13.516 6.933 21.189 6.933z" fill="#efedef"/><path d="m234.078 174.85-20.09-14.721c-.684-.501-1.509-.771-2.357-.771h-7.033c-8.323 0-15.07-6.747-15.07-15.07v-1.071c0-8.323 6.747-15.07 15.07-15.07 1.84 0 3.441-1.259 3.875-3.048l4.839-19.968c.433-1.788 2.035-3.048 3.875-3.048h61.563l5.578 23.016c.433 1.788 2.035 3.048 3.875 3.048 8.323 0 15.07 6.747 15.07 15.07v1.071c0 8.323-6.747 15.07-15.07 15.07h-7.033c-.848 0-1.673.27-2.357.771l-20.09 14.721c-7.336 5.375-17.31 5.375-24.645 0z" fill="#f9f7f8"/><g><g><path d="m246.4 186.381c-4.142 0-7.5-3.358-7.5-7.5v-26.403c0-4.142 3.358-7.5 7.5-7.5s7.5 3.358 7.5 7.5v26.403c0 4.142-3.358 7.5-7.5 7.5z" fill="#efedef"/></g></g><g><g><path d="m246.4 78.893c-4.142 0-7.5-3.358-7.5-7.5v-18.17c0-4.142 3.358-7.5 7.5-7.5s7.5 3.358 7.5 7.5v18.17c0 4.142-3.358 7.5-7.5 7.5z" fill="#f9f7f8"/></g></g><path d="m246.4 25.669c4.142 0 7.5-3.358 7.5-7.5v-18.169h-15v18.169c0 4.143 3.358 7.5 7.5 7.5z" fill="#efedef"/><g><g><path d="m246.4 243.487c-4.142 0-7.5-3.358-7.5-7.5v-26.403c0-4.142 3.358-7.5 7.5-7.5s7.5 3.358 7.5 7.5v26.403c0 4.142-3.358 7.5-7.5 7.5z" fill="#efedef"/></g></g><g><g><path d="m246.4 300.592c-4.142 0-7.5-3.358-7.5-7.5v-26.403c0-4.142 3.358-7.5 7.5-7.5s7.5 3.358 7.5 7.5v26.403c0 4.142-3.358 7.5-7.5 7.5z" fill="#efedef"/></g></g><g><g><path d="m246.4 357.697c-4.142 0-7.5-3.358-7.5-7.5v-26.403c0-4.142 3.358-7.5 7.5-7.5s7.5 3.358 7.5 7.5v26.403c0 4.142-3.358 7.5-7.5 7.5z" fill="#efedef"/></g></g><g><g><path d="m246.4 414.802c-4.142 0-7.5-3.358-7.5-7.5v-26.403c0-4.142 3.358-7.5 7.5-7.5s7.5 3.358 7.5 7.5v26.403c0 4.142-3.358 7.5-7.5 7.5z" fill="#efedef"/></g></g><path d="m253.9 493.799v-55.794c0-4.142-3.358-7.5-7.5-7.5s-7.5 3.358-7.5 7.5v55.794.001h15z" fill="#efedef"/></g><g fill="#ffcebf"><path d="m385.3 200.748v106.792 17.84c0 8.5 2.19 16.87 6.36 24.28l3.184 5.667c6.849-14.944 10.456-31.338 10.456-47.787v-86.792c0-11.046-8.954-20-20-20z"/><path d="m164.295 472.243 6.79-107.672c.11-1.738-.26-3.466-1.07-5.013l-4.55-8.71c-7.12-13.622-10.84-28.781-10.84-44.161v-59.813c0-25.474-20.651-46.126-46.126-46.126v105.939c0 15.38 3.72 30.539 10.84 44.161l4.55 8.71c.81 1.547 1.18 3.275 1.07 5.013l-6.79 107.672c-.737 11.678 8.494 21.557 20.142 21.557h46.126c-11.648 0-20.878-9.878-20.142-21.557z"/></g></g></svg>