<svg xmlns="http://www.w3.org/2000/svg" width="13.5" height="17.367" viewBox="0 0 13.5 17.367">
  <g id="form" transform="translate(-57)">
    <path id="Caminho_35" data-name="Caminho 35" d="M69.526,1.119h-1.2V.875A.876.876,0,0,0,67.454,0H60.046a.876.876,0,0,0-.875.875v.245h-1.2A.975.975,0,0,0,57,2.094v14.3a.975.975,0,0,0,.974.974H69.526a.975.975,0,0,0,.974-.974V2.094A.975.975,0,0,0,69.526,1.119Zm-9.338-.1h7.123V2.2H60.188Zm9.294,15.332H58.018V2.137h1.153v.211a.876.876,0,0,0,.875.875h7.409a.876.876,0,0,0,.875-.875V2.137h1.153Z" fill="#fff"/>
    <path id="Caminho_36" data-name="Caminho 36" d="M186.9,141.308a.509.509,0,0,0,1.018,0v-1.391h1.391a.509.509,0,0,0,0-1.018h-1.391v-1.391a.509.509,0,0,0-1.018,0V138.9h-1.391a.509.509,0,0,0,0,1.018H186.9Z" transform="translate(-123.658 -132.353)" fill="#fff"/>
    <path id="Caminho_37" data-name="Caminho 37" d="M122.594,313h-1.085a.509.509,0,1,0,0,1.018h1.085a.509.509,0,1,0,0-1.018Z" transform="translate(-61.829 -302.383)" fill="#fff"/>
    <path id="Caminho_38" data-name="Caminho 38" d="M122.594,377h-1.085a.509.509,0,1,0,0,1.018h1.085a.509.509,0,1,0,0-1.018Z" transform="translate(-61.829 -364.212)" fill="#fff"/>
    <path id="Caminho_39" data-name="Caminho 39" d="M230.122,313h-4.613a.509.509,0,0,0,0,1.018h4.613a.509.509,0,1,0,0-1.018Z" transform="translate(-162.302 -302.383)" fill="#fff"/>
    <path id="Caminho_40" data-name="Caminho 40" d="M230.122,377h-4.613a.509.509,0,0,0,0,1.018h4.613a.509.509,0,1,0,0-1.018Z" transform="translate(-162.302 -364.212)" fill="#fff"/>
  </g>
</svg>
