<svg xmlns="http://www.w3.org/2000/svg" width="16.5" height="18.773" viewBox="0 0 16.5 18.773">
  <g id="user_1_" data-name="user (1)" transform="translate(-31)">
    <g id="Grupo_76" data-name="Grupo 76" transform="translate(34.3)">
      <g id="Grupo_75" data-name="Grupo 75">
        <path id="Caminho_33" data-name="Caminho 33" d="M125.95,0a4.95,4.95,0,1,0,4.95,4.95A4.956,4.956,0,0,0,125.95,0Z" transform="translate(-121)" fill="rgba(0,0,0,0.35)"/>
      </g>
    </g>
    <g id="Grupo_78" data-name="Grupo 78" transform="translate(31 11)">
      <g id="Grupo_77" data-name="Grupo 77" transform="translate(0)">
        <path id="Caminho_34" data-name="Caminho 34" d="M45.409,302.134A7.057,7.057,0,0,0,40.35,300h-2.2a7.057,7.057,0,0,0-5.059,2.134A7.214,7.214,0,0,0,31,307.223a.55.55,0,0,0,.55.55h15.4a.55.55,0,0,0,.55-.55A7.214,7.214,0,0,0,45.409,302.134Z" transform="translate(-31 -300)" fill="rgba(0,0,0,0.35)"/>
      </g>
    </g>
  </g>
</svg>
